<?xml version="1.0" standalone="no"?>
<!DOCTYPE svg PUBLIC "-//W3C//DTD SVG 20010904//EN"
 "http://www.w3.org/TR/2001/REC-SVG-20010904/DTD/svg10.dtd">
<svg version="1.0" xmlns="http://www.w3.org/2000/svg"
 width="593.000000pt" height="593.000000pt" viewBox="0 0 593.000000 593.000000"
 preserveAspectRatio="xMidYMid meet">
<metadata>
Created by potrace 1.14, written by Peter Selinger 2001-2017
</metadata>
<g transform="translate(0.000000,593.000000) scale(0.100000,-0.100000)"
fill="#000000" stroke="none">
<path d="M950 5853 c-244 -39 -428 -131 -586 -295 -136 -140 -211 -272 -262
-457 l-27 -96 -3 -1207 c-1 -665 -1 -1208 1 -1208 3 0 35 11 71 25 137 51 481
110 602 103 116 -8 263 -88 482 -265 56 -46 102 -80 102 -77 0 14 -180 161
-271 221 l-41 27 28 9 c41 11 175 9 190 -4 13 -10 46 -71 101 -184 13 -27 28
-57 32 -65 4 -8 26 -28 49 -45 44 -33 48 -45 57 -150 l5 -70 -15 40 -15 40 6
-35 c2 -19 9 -68 14 -108 5 -40 12 -77 15 -82 3 -5 17 -62 31 -127 23 -112 24
-135 24 -433 -1 -173 -1 -321 -1 -327 1 -9 19 -13 57 -13 60 0 144 35 235 97
25 18 73 43 105 57 l59 26 -31 -29 c-17 -16 -38 -31 -45 -33 -24 -9 -4 -18 51
-25 52 -6 52 -6 26 -20 -36 -19 -33 -26 8 -19 42 8 90 31 135 64 l33 25 -13
-24 c-11 -22 -11 -23 4 -10 10 7 29 36 44 63 33 61 46 52 68 -47 35 -158 47
-199 80 -273 19 -42 39 -76 44 -75 16 4 24 -159 11 -238 -7 -43 -37 -139 -72
-227 l-61 -152 -112 0 -112 0 3 32 3 33 -7 -30 c-7 -29 -9 -30 -69 -33 l-61
-3 -16 43 c-9 24 -14 31 -11 16 3 -14 8 -33 11 -42 5 -14 -9 -16 -119 -16
l-126 0 -5 43 c-3 23 -17 164 -31 312 -28 296 -44 437 -51 444 -6 7 -5 -12 11
-179 19 -190 55 -590 55 -608 0 -8 -8 -12 -17 -10 -12 2 -20 16 -25 43 l-6 40
2 -43 2 -44 -356 5 c-332 3 -360 5 -431 26 -69 20 -76 25 -72 44 23 94 110
405 142 507 22 68 38 126 36 128 -6 7 -111 -328 -150 -480 -44 -171 -45 -174
-73 -159 l-21 11 26 92 c13 51 50 179 80 283 68 233 67 231 60 225 -7 -6 -107
-340 -142 -475 -36 -138 -31 -128 -57 -115 -22 11 -23 11 -3 -5 35 -28 157
-83 250 -112 l90 -28 1955 -3 c2154 -3 2013 -7 2194 59 251 90 485 324 575
575 66 181 62 40 59 2194 l-3 1955 -28 88 c-38 124 -74 196 -155 319 -166 250
-357 392 -633 469 l-84 24 -1940 1 c-1067 1 -1951 0 -1965 -3z m2559 -1710
c-29 -49 -81 -104 -120 -127 l-31 -18 12 23 c12 21 147 159 157 159 3 0 -5
-17 -18 -37z m-290 -133 c-31 -51 -38 -55 -73 -41 -17 6 -11 13 39 49 32 23
60 42 62 42 1 0 -11 -22 -28 -50z m-1221 -95 c13 -28 10 -30 -19 -15 -21 12
-19 13 -86 -45 -48 -42 -67 -31 -32 19 45 66 116 87 137 41z m1124 -33 c13
-13 -31 -48 -94 -76 -57 -24 -57 -24 -55 -4 1 11 -3 23 -9 25 -7 2 -10 -7 -8
-24 2 -25 1 -26 -11 -10 -11 16 -13 16 -19 2 -3 -9 -2 -13 4 -10 6 3 10 1 10
-4 0 -6 -4 -11 -9 -11 -5 0 -17 -3 -27 -7 -12 -5 -5 11 21 45 43 55 55 62 56
35 0 -14 2 -15 6 -3 3 8 15 23 27 34 21 18 21 18 -6 2 -16 -9 -28 -12 -28 -7
0 19 33 29 83 25 28 -2 54 -7 59 -12z m-1166 -39 c-18 -72 -18 -83 -2 -89 9
-3 27 1 41 10 30 20 35 20 35 2 0 -17 -74 -43 -143 -50 -27 -3 -53 -8 -58 -12
-6 -3 -7 5 -3 23 10 43 24 64 36 57 7 -4 8 -2 4 5 -9 15 9 38 49 63 41 25 49
23 41 -9z m79 -32 c-3 -6 -16 -11 -28 -11 -16 0 -18 3 -8 9 8 6 11 16 6 31
l-7 23 22 -21 c12 -11 19 -25 15 -31z m1663 -35 c-35 -41 -66 -75 -69 -75 -10
-2 -31 53 -22 56 5 2 38 23 74 47 35 24 68 44 72 45 5 0 -20 -32 -55 -73z
m-176 42 c-6 -6 -15 -8 -19 -4 -4 4 -1 11 7 16 19 12 27 3 12 -12z m-1687 -21
c-9 -12 -20 -39 -26 -59 -9 -34 -29 -53 -29 -28 0 24 51 121 60 115 7 -4 5
-14 -5 -28z m2157 -68 c-26 -44 -52 -89 -58 -100 -37 -65 -216 -219 -315 -269
-47 -25 -49 -35 -8 -44 94 -19 155 -4 234 58 l40 31 -35 -50 c-19 -27 -37 -52
-40 -55 -26 -26 -32 -41 -20 -54 6 -8 18 -12 26 -9 8 3 14 0 14 -7 0 -7 7 -10
15 -6 28 10 15 -2 -28 -27 -24 -14 -49 -32 -55 -40 -10 -12 -8 -14 14 -11 15
1 31 7 37 13 6 6 16 11 21 11 6 0 5 -5 -1 -11 -6 -6 -9 -18 -6 -25 3 -8 -1
-14 -11 -14 -28 0 -17 -15 19 -29 35 -12 51 -35 18 -25 -10 3 2 -5 27 -18 34
-17 44 -28 42 -43 -2 -14 0 -16 6 -7 7 10 21 7 65 -12 33 -15 59 -21 62 -16 3
6 -1 10 -10 10 -20 0 -75 37 -75 51 0 5 11 14 24 19 13 5 42 27 65 50 37 38
46 41 42 16 -1 -4 6 -14 16 -21 13 -10 18 -29 20 -72 2 -70 2 -73 12 -50 6 16
9 17 18 5 9 -10 7 -19 -8 -37 l-19 -23 -20 23 c-22 27 -25 22 -8 -16 12 -26
23 -32 32 -16 3 5 19 14 36 19 l30 11 -40 -73 c-22 -40 -40 -82 -40 -92 0 -18
-37 -88 -162 -308 -53 -94 -138 -174 -258 -240 -58 -33 -142 -83 -188 -113
-166 -107 -282 -155 -374 -156 -61 0 -74 4 -141 43 -133 75 -218 151 -374 331
-81 95 -162 190 -179 213 -40 53 -82 91 -91 83 -3 -4 1 -15 10 -25 10 -10 14
-21 11 -25 -4 -4 1 -18 10 -31 9 -14 16 -31 16 -38 0 -26 90 -190 135 -245 25
-32 52 -65 58 -73 67 -85 97 -114 155 -153 37 -25 82 -47 100 -49 l33 -3 -71
-74 c-64 -68 -88 -103 -57 -85 8 5 8 2 -2 -9 -7 -9 -20 -17 -27 -17 -8 0 -14
-6 -14 -14 0 -8 -5 -18 -12 -22 -7 -5 -9 -2 -5 9 4 11 2 14 -8 11 -8 -3 -13
-16 -12 -27 1 -14 -3 -21 -11 -19 -8 1 -11 -1 -8 -6 3 -5 -19 -38 -49 -75 -56
-68 -75 -85 -75 -68 0 5 5 11 12 13 27 9 -5 26 -62 31 -69 8 -142 38 -163 67
-8 11 -13 33 -11 48 4 32 -12 232 -22 280 -6 31 -5 33 17 28 31 -7 95 7 89 19
-3 6 -9 9 -14 7 -5 -2 -32 2 -60 8 l-51 10 -37 133 c-21 72 -42 161 -48 197
-15 97 -12 224 6 279 8 27 21 84 29 127 11 70 13 74 15 34 1 -25 5 -54 9 -65
7 -16 9 -13 15 18 8 44 -28 258 -50 297 -15 25 -15 25 -9 -10 19 -108 20 -100
-8 -100 -38 0 -146 36 -168 56 -25 22 -24 29 2 31 44 4 43 22 -1 20 -42 -2
-43 -1 -73 52 l-30 53 24 19 c13 10 31 16 39 13 8 -4 38 -11 67 -15 100 -17
136 -45 97 -74 -17 -13 -17 -14 -2 -15 9 0 19 6 21 13 4 9 8 9 15 -2 7 -9 12
-10 16 -2 4 6 2 11 -3 11 -6 0 -11 9 -11 19 0 11 -4 22 -9 25 -5 3 -11 15 -14
26 -4 17 -2 20 14 15 18 -6 18 -5 -2 29 -16 27 -18 36 -7 36 8 0 31 9 51 19
21 11 48 18 61 17 13 -2 23 2 23 10 0 10 -5 10 -19 3 -14 -7 -8 6 18 48 51 78
75 105 91 99 7 -3 13 -2 13 2 0 5 16 16 36 25 19 10 33 14 30 9 -2 -4 4 -8 14
-8 15 0 16 3 8 13 -9 11 -6 12 13 5 29 -10 90 -1 72 11 -7 4 -21 4 -31 -2 -10
-5 -24 -6 -31 -2 -8 6 -2 12 20 21 17 8 44 24 60 37 19 17 30 20 35 12 4 -7 3
-9 -3 -6 -6 4 -16 0 -23 -8 -13 -16 -14 -15 77 -20 28 -1 43 -15 17 -16 -13 0
-10 -5 13 -14 26 -12 39 -12 82 -1 46 12 51 11 51 -3 0 -9 9 -34 19 -56 17
-39 17 -41 0 -41 -10 0 -17 3 -16 7 3 9 -65 70 -71 64 -3 -3 4 -19 16 -35 25
-34 27 -42 10 -39 -31 4 -58 -2 -58 -12 0 -8 11 -9 33 -4 45 11 97 7 121 -9
12 -7 50 -16 86 -20 100 -10 133 -18 120 -26 -6 -4 16 -14 51 -23 35 -9 65
-14 67 -12 4 4 -9 10 -98 49 -14 5 -26 11 -28 12 -2 1 11 15 28 32 16 17 33
44 36 61 8 36 9 37 50 12 40 -24 69 -95 61 -148 -4 -21 -3 -33 3 -27 5 5 10
25 12 44 l4 35 13 -42 c8 -24 18 -43 22 -43 8 0 -17 105 -33 133 -13 26 -4 32
17 11 17 -17 17 -16 10 27 -8 46 -23 65 -39 49 -6 -6 -18 -2 -33 12 l-23 22
52 13 c29 8 85 29 124 47 39 19 75 31 80 27 5 -3 22 -23 37 -44 l28 -37 -85
-92 c-47 -51 -86 -98 -86 -106 0 -19 39 -9 112 29 75 38 81 37 25 -7 -26 -20
-47 -38 -47 -40 0 -3 17 3 38 12 20 9 51 22 67 28 17 6 40 17 52 24 12 6 30 9
40 6 14 -5 15 -4 4 4 -11 8 -10 12 7 21 26 14 35 14 27 1 -3 -6 1 -7 10 -3 12
4 13 8 5 13 -7 4 7 19 38 39 28 17 80 63 118 101 37 38 71 67 76 64 5 -3 7 -2
6 3 -3 7 69 103 77 103 2 0 -18 -36 -43 -81z m345 37 c-6 -44 -55 -206 -82
-270 l-15 -35 -38 22 -38 21 53 77 c52 76 113 192 113 217 0 6 3 12 6 12 4 0
4 -20 1 -44z m-2262 24 c3 -5 -1 -10 -10 -10 -9 0 -13 5 -10 10 3 6 8 10 10
10 2 0 7 -4 10 -10z m763 -20 c-7 -11 -19 -22 -28 -25 -8 -4 -4 5 9 19 29 31
36 33 19 6z m562 -9 c0 -3 -32 -18 -72 -33 -62 -24 -69 -25 -52 -8 40 40 124
68 124 41z m194 -27 c3 -8 2 -12 -4 -9 -6 3 -10 10 -10 16 0 14 7 11 14 -7z
m812 -105 c-14 -111 -26 -173 -47 -254 l-11 -40 -19 40 -19 39 29 77 c16 42
39 118 52 168 12 50 24 89 26 87 2 -2 -3 -55 -11 -117z m-1406 71 c0 -5 -8
-10 -17 -10 -15 0 -16 2 -3 10 19 12 20 12 20 0z m200 7 c0 -11 -66 -49 -91
-52 -43 -6 -35 10 14 25 23 7 46 17 52 22 9 8 25 11 25 5z m-391 -41 c-12 -10
-60 -16 -54 -6 3 5 18 10 32 10 15 0 24 -2 22 -4z m-99 -26 c-8 -5 -22 -9 -30
-9 -10 0 -8 3 5 9 27 12 43 12 25 0z m78 -57 c-10 -2 -28 -2 -40 0 -13 2 -5 4
17 4 22 1 32 -1 23 -4z m212 -43 c23 -5 23 -7 6 -13 -27 -11 -62 24 -51 50 7
16 8 15 14 -7 4 -15 16 -27 31 -30z m300 0 c0 -5 -2 -10 -4 -10 -3 0 -8 5 -11
10 -3 6 -1 10 4 10 6 0 11 -4 11 -10z m-1153 -96 c-3 -3 -12 -4 -19 -1 -8 3
-5 6 6 6 11 1 17 -2 13 -5z m73 1 c0 -9 -78 -44 -84 -38 -4 4 13 15 36 24 51
21 48 20 48 14z m-170 -19 c0 -2 -9 -6 -20 -9 -11 -3 -18 -1 -14 4 5 9 34 13
34 5z m2111 -21 c19 -14 34 -29 34 -34 0 -4 -18 -42 -40 -84 -39 -75 -56 -90
-72 -64 -12 20 -118 49 -149 41 -26 -7 -26 -6 15 49 23 30 55 60 71 67 16 6
36 20 46 31 23 26 53 24 95 -6z m62 -70 c-3 -9 -8 -14 -10 -11 -3 3 -2 9 2 15
9 16 15 13 8 -4z m-2298 -15 c3 -5 2 -10 -4 -10 -5 0 -13 5 -16 10 -3 6 -2 10
4 10 5 0 13 -4 16 -10z m78 -7 c-7 -2 -19 -2 -25 0 -7 3 -2 5 12 5 14 0 19 -2
13 -5z m142 -23 c10 -11 16 -20 13 -20 -3 0 -13 9 -23 20 -10 11 -16 20 -13
20 3 0 13 -9 23 -20z m2034 -43 c-17 -31 -35 -57 -41 -57 -6 0 -2 12 7 27 10
14 27 41 38 60 32 55 29 31 -4 -30z m121 27 l23 -35 -37 -82 c-20 -45 -46 -93
-57 -107 -12 -14 -18 -20 -15 -13 4 6 0 15 -7 20 -13 7 -37 45 -37 57 0 3 9 6
19 6 29 0 35 18 7 22 -24 3 -24 3 21 86 25 45 49 82 53 82 5 0 18 -16 30 -36z
m-2353 16 c11 0 8 -6 -8 -19 -22 -18 -25 -18 -31 -3 -11 27 -9 35 8 28 9 -3
23 -6 31 -6z m108 -20 c13 -5 14 -9 5 -9 -8 0 -24 4 -35 9 -13 5 -14 9 -5 9 8
0 24 -4 35 -9z m1884 -24 c-2 -2 -17 -6 -34 -10 -22 -5 -26 -4 -15 4 14 9 59
15 49 6z m1 -76 c8 -5 11 -12 8 -16 -4 -3 -14 1 -23 10 -18 17 -9 21 15 6z
m150 -4 c0 -3 -4 -8 -10 -11 -5 -3 -10 -1 -10 4 0 6 5 11 10 11 6 0 10 -2 10
-4z m100 -151 c0 15 3 16 12 7 8 -8 9 -15 2 -22 -16 -16 -44 -1 -44 24 1 20 1
20 15 -4 12 -22 14 -22 15 -5z m-4 -193 c-18 -16 -18 -16 -6 6 6 13 14 21 18
18 3 -4 -2 -14 -12 -24z m-2611 -463 c-43 -20 -65 -24 -65 -11 0 5 19 13 43
19 62 15 67 14 22 -8z m994 -13 c9 -11 9 -16 -1 -22 -7 -4 -10 -4 -6 1 4 4 3
14 -3 22 -6 7 -9 13 -6 13 2 0 10 -6 16 -14z m-916 -98 c-41 -231 -1 -697 64
-750 15 -11 16 -11 8 7 -43 103 -83 332 -66 377 6 16 13 -12 25 -97 9 -66 26
-150 37 -186 19 -64 51 -119 69 -119 10 0 -2 46 -20 80 -19 35 -60 324 -59
420 0 107 13 216 30 255 l13 30 3 -30 c6 -49 63 -215 98 -285 56 -111 70 -255
39 -406 -17 -81 -33 -121 -66 -163 -29 -38 -13 -37 41 3 53 39 101 118 101
167 0 15 5 31 10 34 6 4 10 -21 10 -67 0 -122 -57 -207 -175 -259 -25 -11 -43
-24 -40 -30 12 -18 72 -9 131 20 32 16 69 32 81 36 12 3 41 27 64 53 l42 47
-21 -41 c-26 -51 -31 -54 -121 -94 -41 -18 -104 -50 -140 -73 -98 -60 -166
-87 -217 -87 l-46 0 8 33 c11 49 7 480 -5 584 -6 50 -18 126 -26 170 -8 43
-15 114 -15 158 0 72 -11 168 -26 234 -5 23 -3 23 38 17 34 -5 52 -2 88 17 25
14 48 25 51 26 3 0 0 -36 -8 -81z m752 -668 c29 0 36 -3 25 -10 -13 -9 -13
-10 1 -10 8 0 19 4 25 9 5 4 25 11 44 14 l35 6 -35 -16 c-58 -26 -116 -28
-160 -7 -48 23 -52 36 -8 23 18 -5 51 -9 73 -9z m427 -48 c22 -47 41 -67 101
-112 l74 -55 21 -95 c29 -125 60 -338 68 -453 13 -215 14 -253 4 -228 -6 14
-8 31 -5 38 2 8 1 12 -4 9 -8 -5 -26 45 -35 99 -41 227 -73 364 -91 392 -19
29 -40 20 -84 -36 -18 -22 -96 -91 -174 -154 -78 -64 -153 -129 -165 -147 -13
-17 -26 -29 -29 -27 -6 7 40 95 136 262 109 188 154 336 136 444 -11 66 -20
47 -22 -47 -1 -66 -8 -108 -30 -172 l-28 -85 -3 47 c-3 49 43 298 57 308 4 3
14 20 22 38 8 17 16 32 19 31 3 0 17 -26 32 -57z m-272 -16 c-22 -60 -43 -250
-33 -296 7 -35 -10 -39 -59 -14 -23 12 -29 13 -26 2 3 -7 24 -20 48 -28 42
-14 96 -63 112 -99 4 -9 7 -11 7 -3 1 6 6 12 12 12 7 0 8 -7 4 -17 -15 -36
-43 -114 -44 -119 0 -2 -25 -54 -56 -115 -31 -61 -63 -127 -70 -147 l-14 -37
0 72 c-1 79 -22 233 -52 387 -10 54 -19 99 -19 101 0 2 7 2 16 1 13 -1 20 14
30 54 7 30 20 73 29 95 16 37 122 205 130 205 2 0 -5 -24 -15 -54z m-32 22
c-9 -13 -26 -25 -38 -26 -22 -4 -22 -2 6 22 36 32 51 33 32 4z m-155 -148 c20
-6 37 -14 37 -17 0 -3 -6 -3 -13 0 -8 3 -19 2 -26 -3 -10 -6 -10 -12 1 -31 7
-13 17 -27 21 -30 5 -3 2 -9 -7 -12 -9 -4 -16 -14 -16 -22 0 -10 5 -13 11 -9
7 4 10 2 8 -5 -10 -29 -25 -7 -54 78 -23 66 -27 87 -16 77 9 -7 33 -19 54 -26z
m-72 -17 c28 -72 99 -418 99 -478 -1 -53 -74 145 -95 258 -9 45 -24 100 -35
121 -17 35 -18 42 -4 67 7 15 14 35 14 44 0 23 9 18 21 -12z m810 -272 c0 -9
2 -50 3 -91 4 -93 36 -190 83 -248 39 -47 80 -78 90 -68 8 7 -23 72 -44 94 -7
7 -13 22 -13 31 0 10 -2 34 -5 52 -5 34 -5 34 7 8 7 -14 30 -47 51 -72 34 -42
48 -77 30 -77 -5 0 -9 -14 -10 -32 -1 -17 -14 -71 -28 -119 -14 -48 -25 -96
-26 -106 0 -16 -1 -16 -10 2 -9 18 -9 18 -5 -4 3 -12 1 -33 -4 -45 -5 -11 -20
-60 -35 -108 l-27 -88 -44 0 -44 0 20 40 c27 53 37 158 19 191 -7 13 -13 27
-14 31 0 3 -4 10 -9 15 -5 5 -6 2 -1 -6 5 -9 4 -12 -3 -7 -20 12 -53 -66 -92
-221 l-11 -43 -51 0 c-43 0 -50 2 -45 17 3 10 33 95 65 190 33 95 63 196 67
225 l8 53 13 -52 c7 -29 20 -68 28 -88 8 -19 13 -42 10 -49 -3 -9 2 -13 18
-12 23 1 23 1 22 146 -1 123 -21 343 -40 442 -5 23 -2 27 10 22 9 -3 16 -14
17 -23z m-445 -16 c-4 -14 -11 -25 -16 -25 -5 0 -7 7 -5 15 3 8 7 22 10 31 9
26 18 8 11 -21z m129 -206 c-24 -172 -105 -390 -214 -578 l-42 -71 -119 0
c-66 0 -120 2 -120 4 0 2 21 53 46 113 40 96 68 167 120 309 8 23 40 69 71
103 47 53 58 60 72 49 13 -10 14 -10 4 2 -11 11 -3 22 40 60 28 26 54 47 57
47 3 1 25 19 50 41 24 23 46 40 47 38 2 -2 -4 -54 -12 -117z m557 -394 c1
-193 -7 -280 -23 -240 l-8 20 -1 -20 c-1 -17 -3 -17 -12 5 l-11 25 -7 -25 -8
-25 -1 27 c-1 15 -5 29 -9 32 -12 7 -6 107 11 161 20 65 44 153 52 188 4 21 3
27 -6 21 -9 -5 -10 2 -6 26 4 18 7 40 8 49 1 9 5 0 10 -19 6 -19 10 -120 11
-225z m-65 43 c-3 -8 -6 -5 -6 6 -1 11 2 17 5 13 3 -3 4 -12 1 -19z m-177
-148 c0 -35 -18 -57 -42 -52 -5 1 -8 -3 -8 -9 0 -5 -5 -7 -10 -4 -7 4 -9 -2
-4 -19 6 -26 -19 -76 -30 -58 -8 13 33 142 46 142 5 0 6 5 3 10 -3 6 -1 26 6
44 l13 35 13 -26 c7 -14 13 -42 13 -63z m145 -80 c-4 -17 -9 -29 -12 -26 -3 2
-2 19 2 36 4 17 9 29 12 26 3 -2 2 -19 -2 -36z m-171 -19 c-9 -22 -20 -39 -24
-36 -5 3 -11 -1 -13 -7 -4 -10 -6 -10 -6 0 -1 7 6 15 14 18 8 4 15 12 15 20 0
15 22 55 28 50 1 -2 -5 -22 -14 -45z m133 7 c-3 -8 -6 -5 -6 6 -1 11 2 17 5
13 3 -3 4 -12 1 -19z m20 -50 c-3 -8 -6 -5 -6 6 -1 11 2 17 5 13 3 -3 4 -12 1
-19z"/>
<path d="M1890 3889 c0 -5 5 -7 10 -4 6 3 10 8 10 11 0 2 -4 4 -10 4 -5 0 -10
-5 -10 -11z"/>
<path d="M3910 3655 c0 -8 2 -15 4 -15 2 0 6 7 10 15 3 8 1 15 -4 15 -6 0 -10
-7 -10 -15z"/>
<path d="M3875 3620 c-18 -20 -18 -21 1 -14 19 7 18 7 -1 -17 l-20 -24 22 18
c13 12 19 25 15 35 -5 15 -4 16 14 2 18 -14 18 -14 5 3 -17 21 -14 21 -36 -3z"/>
<path d="M2580 3590 c0 -5 7 -10 15 -10 8 0 15 5 15 10 0 6 -7 10 -15 10 -8 0
-15 -4 -15 -10z"/>
<path d="M2545 3540 c-3 -5 -2 -10 4 -10 5 0 13 5 16 10 3 6 2 10 -4 10 -5 0
-13 -4 -16 -10z"/>
<path d="M2740 3530 c0 -5 7 -10 15 -10 8 0 15 5 15 10 0 6 -7 10 -15 10 -8 0
-15 -4 -15 -10z"/>
<path d="M2438 3523 c6 -2 18 -2 25 0 6 3 1 5 -13 5 -14 0 -19 -2 -12 -5z"/>
<path d="M2425 3500 c-13 -5 -14 -9 -5 -9 8 0 24 4 35 9 13 5 14 9 5 9 -8 0
-24 -4 -35 -9z"/>
<path d="M2375 3480 c3 -5 1 -10 -5 -10 -6 0 -8 -5 -5 -10 4 -6 12 -5 21 4 18
19 18 26 -2 26 -8 0 -12 -4 -9 -10z"/>
<path d="M2433 3470 c-24 -10 -43 -22 -43 -25 0 -3 3 -4 8 -2 4 2 24 11 45 21
20 9 37 19 37 21 0 7 0 7 -47 -15z"/>
<path d="M2330 3419 c-7 -11 -9 -23 -6 -27 3 -3 6 1 6 9 0 12 2 12 9 0 6 -9 5
-25 0 -40 l-9 -26 19 24 c16 21 17 27 5 38 -7 8 -11 20 -8 28 9 23 -4 18 -16
-6z"/>
<path d="M2360 3431 c0 -6 4 -13 10 -16 6 -3 7 1 4 9 -7 18 -14 21 -14 7z"/>
<path d="M2866 3424 c-9 -24 -8 -25 13 -13 27 18 54 4 46 -22 -5 -15 -3 -20 6
-17 25 8 20 33 -10 51 -36 21 -47 21 -55 1z"/>
<path d="M3050 3406 c0 -2 7 -6 15 -10 8 -3 15 -1 15 4 0 6 -7 10 -15 10 -8 0
-15 -2 -15 -4z"/>
<path d="M3005 3390 c-3 -5 -1 -10 4 -10 6 0 11 5 11 10 0 6 -2 10 -4 10 -3 0
-8 -4 -11 -10z"/>
<path d="M2294 3319 c-3 -6 -3 -13 0 -16 3 -4 6 0 6 8 0 12 2 12 9 0 5 -8 11
-9 15 -3 3 5 -1 12 -9 16 -8 3 -17 1 -21 -5z"/>
<path d="M2180 3302 c0 -12 19 -26 26 -19 2 2 -2 10 -11 17 -9 8 -15 8 -15 2z"/>
<path d="M2290 3277 c0 -7 -13 -26 -30 -42 -16 -16 -30 -25 -30 -21 0 5 -7 3
-15 -4 -13 -11 -13 -15 -3 -21 9 -6 24 4 46 29 41 45 57 72 42 72 -5 0 -10 -6
-10 -13z"/>
<path d="M2250 3265 c-7 -9 -8 -15 -2 -15 5 0 12 7 16 15 3 8 4 15 2 15 -2 0
-9 -7 -16 -15z"/>
<path d="M2218 3233 c7 -3 16 -2 19 1 4 3 -2 6 -13 5 -11 0 -14 -3 -6 -6z"/>
<path d="M2546 3218 c3 -5 10 -6 15 -3 13 9 11 12 -6 12 -8 0 -12 -4 -9 -9z"/>
<path d="M3654 3148 c-5 -7 -10 -60 -12 -118 -3 -79 0 -110 11 -124 12 -17 15
-10 21 70 3 48 9 106 11 129 4 30 3 35 -4 20 -5 -11 -10 -40 -11 -65 -1 -25
-5 -54 -10 -65 -13 -30 -13 38 0 105 10 55 8 71 -6 48z"/>
<path d="M2080 3121 c0 -5 9 -7 20 -4 11 3 20 7 20 9 0 2 -9 4 -20 4 -11 0
-20 -4 -20 -9z"/>
<path d="M3985 2963 c4 -15 2 -23 -5 -23 -6 0 -8 -5 -4 -11 4 -7 11 -6 22 5
15 15 15 17 -2 34 -17 16 -18 16 -11 -5z"/>
<path d="M4060 2938 c0 -7 5 -20 10 -28 8 -12 10 -9 10 13 0 15 -4 27 -10 27
-5 0 -10 -6 -10 -12z"/>
<path d="M3360 2812 c0 -4 18 -15 40 -24 35 -15 57 -10 30 7 -19 12 -70 24
-70 17z"/>
<path d="M3643 2781 c-7 -11 -44 -36 -83 -56 -40 -22 -70 -44 -70 -53 0 -13 2
-13 18 1 9 8 43 25 75 37 41 16 61 30 72 50 8 16 15 31 15 35 0 12 -16 4 -27
-14z"/>
<path d="M2990 2641 c0 -11 126 -122 182 -160 25 -17 89 -47 141 -65 92 -34
96 -34 142 -20 27 8 59 14 72 14 14 0 23 6 23 16 0 9 -6 14 -12 11 -7 -2 -24
4 -37 14 -12 10 -39 21 -60 25 -20 4 -67 24 -106 44 -38 21 -110 50 -160 65
-49 15 -108 36 -129 46 -44 21 -56 23 -56 10z m215 -86 c41 -13 105 -40 142
-58 37 -18 84 -41 103 -50 l35 -18 -55 5 c-30 3 -66 8 -80 11 -16 3 -12 -1 12
-13 44 -20 50 -34 11 -22 -92 27 -160 59 -217 102 -100 73 -83 88 49 43z"/>
<path d="M2640 1750 c-14 -11 -30 -20 -37 -20 -6 0 -14 -9 -18 -19 -3 -10 -17
-22 -31 -25 -15 -4 -22 -11 -18 -18 5 -7 2 -9 -9 -5 -9 3 -19 2 -22 -4 -4 -5
2 -12 12 -15 10 -3 26 -10 36 -15 20 -11 24 10 5 29 -9 9 -8 12 5 12 9 0 17
-7 17 -17 0 -14 2 -14 20 2 11 10 20 24 20 32 0 8 5 11 10 8 9 -6 11 -1 14 33
1 7 8 17 16 22 8 5 12 11 10 14 -3 2 -16 -4 -30 -14z m-30 -47 c0 -14 -19 -38
-25 -32 -8 8 5 39 16 39 5 0 9 -3 9 -7z"/>
<path d="M4011 3296 c2 -2 24 -6 49 -10 31 -4 40 -3 30 4 -13 9 -89 15 -79 6z"/>
<path d="M4110 3280 c0 -5 5 -10 11 -10 5 0 7 5 4 10 -3 6 -8 10 -11 10 -2 0
-4 -4 -4 -10z"/>
<path d="M2340 1354 c0 -5 7 -19 15 -30 8 -10 15 -14 15 -8 0 5 -7 19 -15 30
-8 10 -15 14 -15 8z"/>
<path d="M3210 716 c0 -2 8 -10 18 -17 15 -13 16 -12 3 4 -13 16 -21 21 -21
13z"/>
<path d="M3160 560 c0 -11 4 -20 9 -20 5 0 7 9 4 20 -3 11 -7 20 -9 20 -2 0
-4 -9 -4 -20z"/>
<path d="M3015 540 c-4 -12 -5 -24 -2 -27 3 -2 8 5 12 17 4 12 5 24 2 27 -3 2
-8 -5 -12 -17z"/>
<path d="M3060 551 c0 -5 5 -13 10 -16 6 -3 10 -2 10 4 0 5 -4 13 -10 16 -5 3
-10 2 -10 -4z"/>
<path d="M3014 492 c-23 -18 -59 -81 -51 -89 3 -2 8 5 12 17 4 12 20 37 37 56
33 38 34 42 2 16z"/>
<path d="M3171 503 c0 -6 -4 -20 -7 -30 -5 -14 -4 -15 5 -7 7 7 11 20 8 30 -3
11 -5 14 -6 7z"/>
<path d="M3199 468 c-5 -12 -5 -69 0 -72 3 -3 6 13 6 35 0 33 -2 46 -6 37z"/>
<path d="M3151 443 c-2 -18 10 -43 20 -43 5 0 9 7 9 16 0 8 -4 13 -9 9 -5 -3
-12 3 -14 12 -3 10 -5 13 -6 6z"/>
<path d="M3326 561 c-4 -5 -2 -20 3 -33 9 -21 10 -21 10 10 1 32 -3 39 -13 23z"/>
<path d="M3306 445 c-3 -8 -1 -15 4 -15 6 0 10 7 10 15 0 8 -2 15 -4 15 -2 0
-6 -7 -10 -15z"/>
<path d="M3332 440 c0 -14 2 -19 5 -12 2 6 2 18 0 25 -3 6 -5 1 -5 -13z"/>
<path d="M3310 321 c0 -11 5 -23 10 -26 6 -4 10 5 10 19 0 14 -4 26 -10 26 -5
0 -10 -9 -10 -19z"/>
<path d="M3087 410 c3 -11 7 -20 9 -20 2 0 4 9 4 20 0 11 -4 20 -9 20 -5 0 -7
-9 -4 -20z"/>
<path d="M925 2585 c-51 -13 -168 -63 -150 -64 6 -1 42 12 80 29 39 16 87 30
108 30 23 0 36 4 32 10 -7 12 -6 12 -70 -5z"/>
<path d="M260 2555 c-8 -2 -54 -9 -102 -15 -49 -7 -88 -15 -88 -19 0 -4 55 1
123 11 147 23 211 18 344 -23 75 -23 110 -29 150 -26 47 5 56 2 104 -31 29
-20 106 -89 170 -153 65 -64 113 -107 108 -97 -20 38 -189 197 -268 252 -67
48 -84 56 -96 46 -20 -17 -84 -7 -189 26 -75 24 -215 40 -256 29z"/>
<path d="M70 2432 c0 -5 18 -16 39 -25 65 -29 154 -127 204 -225 111 -217 154
-450 188 -1007 6 -104 15 -199 20 -210 7 -17 8 -15 8 10 1 29 -10 189 -30 445
-18 236 -57 461 -106 615 -23 72 -87 198 -129 253 -60 79 -194 178 -194 144z"/>
<path d="M103 2280 c21 -4 65 -21 97 -38 33 -17 58 -26 54 -20 -12 19 -129 68
-159 67 -28 -1 -27 -2 8 -9z"/>
<path d="M286 2127 c3 -10 9 -15 12 -12 3 3 0 11 -7 18 -10 9 -11 8 -5 -6z"/>
<path d="M316 2055 c11 -48 25 -76 18 -35 -4 19 -10 42 -15 50 -6 10 -7 5 -3
-15z"/>
<path d="M342 1960 c0 -14 2 -19 5 -12 2 6 2 18 0 25 -3 6 -5 1 -5 -13z"/>
<path d="M352 1890 c0 -19 2 -27 5 -17 2 9 2 25 0 35 -3 9 -5 1 -5 -18z"/>
<path d="M931 1214 c0 -11 3 -14 6 -6 3 7 2 16 -1 19 -3 4 -6 -2 -5 -13z"/>
<path d="M916 1175 c-3 -9 -6 -22 -5 -28 0 -7 5 -1 10 12 5 13 8 26 5 28 -2 2
-6 -3 -10 -12z"/>
<path d="M425 1150 c-10 -11 -16 -22 -13 -25 3 -3 13 6 22 20 20 30 16 32 -9
5z"/>
<path d="M901 1123 c-1 -6 -4 -20 -7 -30 -5 -17 -5 -17 6 0 6 10 9 23 6 30 -3
9 -5 9 -5 0z"/>
<path d="M966 1105 c-9 -26 -7 -32 5 -12 6 10 9 21 6 23 -2 3 -7 -2 -11 -11z"/>
<path d="M1785 1111 c-3 -5 -2 -12 3 -15 5 -3 9 1 9 9 0 17 -3 19 -12 6z"/>
<path d="M390 1089 c-6 -11 -10 -27 -8 -35 2 -8 8 1 14 20 12 40 10 46 -6 15z"/>
<path d="M1780 1070 c0 -5 5 -10 11 -10 5 0 7 5 4 10 -3 6 -8 10 -11 10 -2 0
-4 -4 -4 -10z"/>
<path d="M871 1029 c-7 -22 -11 -43 -8 -45 2 -2 9 14 16 37 7 22 11 43 8 45
-2 2 -9 -14 -16 -37z"/>
<path d="M936 1014 c-9 -26 -16 -52 -15 -58 0 -6 9 13 20 43 10 30 17 56 15
58 -2 2 -11 -17 -20 -43z"/>
<path d="M380 1017 c0 -19 69 -99 70 -80 0 6 -9 18 -20 26 -10 7 -26 27 -35
43 -10 19 -15 23 -15 11z"/>
<path d="M845 950 c-4 -12 -5 -24 -2 -27 3 -2 8 5 12 17 4 12 5 24 2 27 -3 2
-8 -5 -12 -17z"/>
<path d="M1792 870 c0 -19 2 -27 5 -17 2 9 2 25 0 35 -3 9 -5 1 -5 -18z"/>
<path d="M470 784 c-32 -153 -57 -300 -52 -308 3 -6 20 73 38 174 18 102 31
186 29 188 -2 2 -9 -22 -15 -54z"/>
<path d="M1803 745 c0 -22 2 -30 4 -17 2 12 2 30 0 40 -3 9 -5 -1 -4 -23z"/>
<path d="M302 740 c0 -14 2 -19 5 -12 2 6 2 18 0 25 -3 6 -5 1 -5 -13z"/>
<path d="M291 690 c-1 -14 -4 -36 -6 -50 l-6 -25 11 25 c6 13 9 36 7 50 l-4
25 -2 -25z"/>
<path d="M1812 660 c0 -14 2 -19 5 -12 2 6 2 18 0 25 -3 6 -5 1 -5 -13z"/>
<path d="M1552 600 c0 -14 2 -19 5 -12 2 6 2 18 0 25 -3 6 -5 1 -5 -13z"/>
<path d="M1822 600 c0 -14 2 -19 5 -12 2 6 2 18 0 25 -3 6 -5 1 -5 -13z"/>
<path d="M1831 544 c0 -11 3 -14 6 -6 3 7 2 16 -1 19 -3 4 -6 -2 -5 -13z"/>
<path d="M2063 505 c0 -22 2 -30 4 -17 2 12 2 30 0 40 -3 9 -5 -1 -4 -23z"/>
<path d="M1842 490 c0 -14 2 -19 5 -12 2 6 2 18 0 25 -3 6 -5 1 -5 -13z"/>
<path d="M1573 425 c0 -22 2 -30 4 -17 2 12 2 30 0 40 -3 9 -5 -1 -4 -23z"/>
<path d="M1852 445 c0 -21 25 -107 27 -90 0 6 -6 33 -13 60 -8 28 -14 41 -14
30z"/>
<path d="M2071 440 c-10 -124 -11 -145 0 -112 5 19 8 57 6 85 -2 29 -4 41 -6
27z"/>
<path d="M1582 350 c0 -19 2 -27 5 -17 2 9 2 25 0 35 -3 9 -5 1 -5 -18z"/>
</g>
</svg>
